# xmcd
#
# Track frame offsets: 
#        150
#        12702
#        28314
#        43232
#        54016
#        66738
#        76419
#        88744
#        100798
#        117010
#        126450
#        139777
#
# Disc length: 2046 seconds
#
# Revision: 0
# Processed by: cddbd v1.5.2PL0 Copyright (c) Steve Scherf et al.
# Submitted via: ExactAudioCopy v0.99pb5
#
DISCID=ac07fc0c
DTITLE=Eddie Biebel - Rollin'On
DYEAR=2008
DGENRE=Country
TTITLE0=Rollin'On
TTITLE1=Southern Medley
TTITLE2=Jordan Am A Hard Road To Travel
TTITLE3=The Brakeman's Blues
TTITLE4=Bring It On Down To My House Honey
TTITLE5=Country Stomp
TTITLE6=I'm A Goin' Fishin'
TTITLE7=I'll Keep My Ol' Guitar
TTITLE8=Fifty Miles Of Elbow Room
TTITLE9=High On A Mountain
TTITLE10=Midnight On The Water
TTITLE11=I'll Fly Away
EXTD=
EXTT0=
EXTT1=
EXTT2=
EXTT3=
EXTT4=
EXTT5=
EXTT6=
EXTT7=
EXTT8=
EXTT9=
EXTT10=
EXTT11=
PLAYORDER=
